/* XPM */
static char *_e77800053fa43cfac5b9541be2a5a93itt3JbIBr02gXJRU[] = {
/* columns rows colors chars-per-pixel */
"64 64 138 2 ",
"   c None",
".  c #053129",
"X  c #0A352E",
"o  c #0C3730",
"O  c #0E3B34",
"+  c #17403A",
"@  c #18413A",
"#  c #104C42",
"$  c #125146",
"%  c #13554A",
"&  c #13594D",
"*  c #155E52",
"=  c #3A5D57",
"-  c #3B5D58",
";  c #156155",
":  c #166558",
">  c #176C5E",
",  c #186B5D",
"<  c #186F60",
"1  c #1A7464",
"2  c #1B7B6B",
"3  c #217667",
"4  c #227668",
"5  c #227869",
"6  c #43645E",
"7  c #446560",
"8  c #4C6C67",
"9  c #4E6D68",
"0  c #54726D",
"q  c #5E7A75",
"w  c #607C77",
"e  c #647F7B",
"r  c #1C806F",
"t  c #1D8372",
"y  c #1E8876",
"u  c #1F8E7B",
"i  c #1F917E",
"p  c #20937F",
"a  c #66817D",
"s  c #1E9480",
"d  c #209581",
"f  c #239A85",
"g  c #299D89",
"h  c #24A38D",
"j  c #2BA18D",
"k  c #25AA93",
"l  c #2BAA94",
"z  c #26AF98",
"x  c #26B299",
"c  c #2CB49D",
"v  c #27B89F",
"b  c #28BCA2",
"n  c #509C8F",
"m  c #738C88",
"M  c #45BDA9",
"N  c #2BC5AA",
"B  c #2BC9AE",
"V  c #36C2AA",
"C  c #3BC2AB",
"Z  c #2CCDB1",
"A  c #33CDB3",
"S  c #3ECDB5",
"D  c #2ED1B4",
"F  c #2FD7BA",
"G  c #2FDABC",
"H  c #3FD3BA",
"J  c #30DBBD",
"K  c #4CCDB7",
"L  c #55C4B1",
"P  c #65D2BF",
"I  c #31DEC0",
"U  c #3CDDC1",
"Y  c #3BE2C5",
"T  c #42DBC1",
"R  c #66D3C0",
"E  c #6EDFCC",
"W  c #44E9CC",
"Q  c #48EACE",
"!  c #45EDD0",
"~  c #4AEDD1",
"^  c #4BF0D3",
"/  c #72E0CD",
"(  c #69E6D0",
")  c #63EFD7",
"_  c #7BEEDA",
"`  c #6FF1DA",
"'  c #71F1DB",
"]  c #809692",
"[  c #819894",
"{  c #859D99",
"}  c #9DBAB5",
"|  c #A6B6B3",
" . c #AAB9B6",
".. c #A7C3BE",
"X. c #ACC3BF",
"o. c #85E5D4",
"O. c #81ECDA",
"+. c #9AECDD",
"@. c #99EFE0",
"#. c #8CF4E2",
"$. c #9FF5E6",
"%. c #A2F6E7",
"&. c #ACF1E4",
"*. c #A5F6E8",
"=. c #ABF7EA",
"-. c #B1F7EB",
";. c #BDF6EC",
":. c #B6F8EC",
">. c #BDF9EE",
",. c #C6D0CF",
"<. c #C9D3D1",
"1. c #C2F5EC",
"2. c #C1F9EF",
"3. c #C5F9F0",
"4. c #CDFAF2",
"5. c #D2FAF3",
"6. c #DEFCF7",
"7. c #E5EAE9",
"8. c #EFF2F1",
"9. c #E8F8F5",
"0. c #E4FDF8",
"q. c #EDFDFA",
"w. c #EEFDFB",
"e. c #EBFDFA",
"r. c #F5F6F6",
"t. c #F3FEFC",
"y. c #F0FFFD",
"u. c #F4FEFC",
"i. c #F6FEFD",
"p. c #F1FEFB",
"a. c #F8F9F9",
"s. c #FBFFFE",
"d. c #FDFEFE",
"f. c #FDFFFE",
"g. c white",
"h. c #FFFFFF",
"j. c #FCFCFC",
"k. c #FFFFFF",
/* pixels */
"                                          o o o o o o o o o o o o o o o o o o o o o o                                           ",
"                                          o o o o o o o o o o o o o o o o o o o o o o                                           ",
"                                          o o o o X o o o o o o o o o o o o o o o o o                                           ",
"                                          X X . X X X X . X X X X X X . . X . X X . X                                           ",
"                                          6 8 8 8 8 8 8 8 8 8 8 8 8 8 8 8 8 8 8 8 8 6                                           ",
"                                o o o o o | h.a.a.p.a.a.a.a.a.a.a.a.a.a.u.a.a.a.a.h. .o o o o o                                 ",
"                                o o o o o | h.h.h.h.h.h.h.h.h.h.h.h.h.h.h.h.h.h.h.h. .o o o o o                                 ",
"                                o o o o o  .h.h.h.h.h.h.h.h.h.h.h.h.h.h.h.h.h.h.h.h. .o o o o X                                 ",
"                                X X X X X | h.h.h.h.h.h.h.h.h.h.h.h.h.h.h.h.h.h.h.h.| o X X X X                                 ",
"                                = = = = = ..w.e.q.q.q.q.q.q.q.q.q.q.q.q.p.u.u.u.u.h.X.& % & & %                                 ",
"                      o o o X 6 7.r.8.8.8.1.*.=.=.*.=.*.=.*.=.*.*.=.=.*.=.3.5.5.5.6.+.D D D D k O o o o o                       ",
"                      o o o X 6 r.h.h.h.h.2.%.%.%.%.%.%.%.%.%.%.%.%.%.%.=.3.5.5.5.5.@.J J J I v + o o o o                       ",
"                      X o o X 6 r.h.h.h.h.3.%.%.%.%.%.%.%.%.%.%.%.%.%.%.*.3.5.5.4.5.@.J J J J c O o o o o                       ",
"                      X X . . 6 r.h.h.h.h.3.%.%.%.%.*.%.*.%.%.%.%.%.$.%.*.3.5.5.5.5.@.J J J I c + X o o o                       ",
"                    6 a a a a { 9.w.w.w.q.>.%.%.%.%.%.%.%.%.%.*.>.3.3.3.3.*.%.%.%.*._ Y Y Y Y b + o o o o                       ",
"          o o o X X q h.h.h.h.p.5.5.5.5.4.:.%.%.%.%.%.%.%.%.%.-.u.h.h.h.u.' ! ~ ~ ~ ~ ~ ~ ~ ~ C + o o o o                       ",
"          o o o o X q h.h.h.h.u.5.5.5.5.5.-.%.%.%.%.%.%.%.%.%.=.t.h.h.h.u.' ! ~ ~ ~ ~ ~ ~ ~ ^ C + X X O o                       ",
"          o o o o . q h.h.h.h.u.5.5.5.5.5.-.%.%.%.%.%.%.%.%.%.=.u.h.h.h.u.' ~ ~ ~ ~ ~ ~ ~ ~ ^ C O X X X o                       ",
"          o o o o X q h.h.h.h.u.5.5.5.5.5.-.%.%.%.%.%.%.%.%.%.=.u.h.h.h.u.' ! ~ ! ~ ~ ~ ~ ~ ^ C + X X X X                       ",
"          o o o o X w s.h.h.h.t.3.3.3.3.3.2.>.:.>.>.:.=.-.=.-.:.e.t.t.t.w.#.' ' ` ' ) ~ ~ ~ ! K > : : : : &                     ",
"          o o o o X q h.h.h.h.e.*.*.%.%.*.6.h.h.h.h.0.5.5.4.5.5.5.5.5.5.5.4.4.4.4.5.%.~ ~ ~ ~ W F F G G F < . o o o             ",
"          o o o o . q h.h.h.h.e.*.%.%.%.%.6.h.h.h.h.0.5.5.5.5.5.5.5.5.5.5.5.5.5.5.5.%.~ ~ ~ ~ W G G G G G < o o o o             ",
"          X o o X X w h.h.h.h.e.*.*.%.%.%.6.h.h.h.h.9.5.5.4.5.5.5.5.5.4.5.5.5.5.5.5.%.~ ~ ~ ~ W G G I G G < o o o o             ",
"          X X X X . q h.h.h.h.e.*.%.$.%.%.6.h.h.h.h.e.5.5.5.5.5.5.5.5.5.5.5.5.5.5.5.*.~ ~ ~ ~ W G G G I G < o o o o             ",
"        @ m [ [ [ ] } 5.5.5.5.5.4.4.4.4.4.3.3.3.3.3.>.:.*.=.-.=.-.-.=.=.-.-.-.-.:.:.o.V V V V A Y Y Y W Y 3 X o o o             ",
"o o o X @ <.h.h.h.h.0.%.%.%.$.:.h.h.h.h.h.:.#.#.#.#.#.#.#.#.#.#.#.#.#.#.#.#.#.#.#.#.R s s s s l Q ~ Q ~ ~ 4 X o o o             ",
"o o o o @ <.h.h.h.h.6.%.%.*.%.:.h.h.h.h.h.:.#.#.#.#.#.#.#.#.#.#.#.#.#.#.#.#.#.#.#.#.R f s d s l Q ~ ~ ~ ~ 4 X X o o             ",
"o o o X @ <.h.h.h.h.0.%.%.%.%.:.s.h.h.h.h.-.#.#.#.#.#.#.#.#.#.#.#.#.#.#.#.#.#.#.#.#.R d d d s l Q ~ ~ ~ ~ 5 X X o o             ",
"o o o X @ <.h.h.h.h.6.%.%.%.%.:.s.h.h.h.h.:.#.#.#.#.#.#.#.#.#.#.#.#.#.#.#.#.#.#.#.#.R f d d i l Q ~ ~ ~ ~ 4 . X X X             ",
"o o o o @ <.h.h.h.h.0.%.%.%.%.:.e.q.q.q.q.=.#.#.#.#.#.#.#.#.#.#.#.#.#.#.#.#.#.#.#.#.R f d s s l Q ~ ~ ~ ~ g 1 2 2 1 :           ",
"o o o X @ <.h.h.h.h.6.%.%.%.%.=.4.5.5.5.5.*.#.#.#.#.#.#.#.#.#.#.#.#.#.#.#.O.#.#.#.#.R d d d d l Q ~ ~ ~ ~ Y J J J J y X o o o o ",
"o o o o @ <.h.h.h.h.0.%.%.%.%.=.4.5.5.5.5.*.#.#.#.#.#.#.#.#.#.#.#.#.#.#.#.#.#.#.#.#.R d d d p l Q ~ ~ ~ ~ Y J J J J y X o o o o ",
"o o o o @ <.h.h.h.h.6.%.%.%.%.=.4.5.4.5.5.*.#.#.#.#.#.#.#.#.#.#.#.#.#.#.#.#.#.#.#.#.R f d d s l Q ~ ~ ~ ~ U I I G I y o o o o o ",
"o o o X @ <.h.h.h.h.0.%.%.%.%.=.5.5.5.4.5.*.#.#.#.#.#.#.#.#.#.#.#.#.#.#.#.#.#.#.#.#.R f d d s l Q ~ ~ ~ ! U I G G I t X o o o o ",
"o o o o @ <.h.h.h.h.e.;.2.;.;.&./ E E E E O.#.#.#.#.#.#.#.#.#.#.#.#.#.#.O.#.#.#.#.#.R f d d d f l l l l l j h j f h < o o o o o ",
"o o o X @ <.h.h.h.h.t.5.5.5.6.&.Z Z Z B Z ( #.#.#.#.#.#.#.#.#.#.#.#.#.#.#.#.#.#.#.#.R d d d d u 5 2 1 2 2 2 2 1 2 2 % o o o o o ",
"o o o X @ <.h.h.h.h.w.5.5.5.5.&.A Z Z Z Z ( #.#.#.#.#.#.#.#.#.#.#.#.#.#.#.#.#.#.#.#.R f d s d u 2 2 2 2 2 2 2 2 2 2 % o o o o o ",
"o o o o @ <.h.h.h.h.q.5.5.5.5.&.A D Z Z A ( #.#.#.#.#.#.#.#.#.#.#.#.#.#.#.#.#.#.#.#.R f d d d u 2 2 2 2 2 2 2 2 2 2 % o o o o o ",
"o o o X @ <.h.h.h.h.t.5.5.5.5.&.D B Z Z Z ( #.#.#.#.#.#.#.#.#.#.#.#.#.#.#.#.#.#.#.#.R d d d s u 2 2 2 2 2 2 2 2 2 2 % o o o o o ",
"o o o o @ <.h.h.h.h.6.#.#.#.#._ T U U U Y K L L L L L L L L L L L L L L L L L L L L M x x z z z h h h h h s y y u y * o o o o o ",
"o o o X @ <.h.h.h.h.2.~ ~ ! ~ ~ ~ ~ ~ ~ ~ c p s s s s s s s s s f d d d s s s s s s k Z Z Z Z Z Z Z Z Z Z k d d s s : o o o o o ",
"o o o o @ <.h.h.h.h.2.~ ~ ~ ~ ~ ~ ~ ~ ~ ~ c d d d d s d d s d d d d d d d d d s d d k Z Z Z Z Z Z Z Z Z Z k p d d s : o o o o o ",
"o o o o @ <.h.h.h.h.2.~ ~ ~ ~ ~ ~ ~ ~ ~ ~ c i d s s d d d s d s d d d d s d s s d s k Z Z Z Z Z Z Z Z Z Z k p d d d : o o o o o ",
"o o o X @ ,.h.j.j.j.1.~ ~ ~ ~ ~ ~ Q Q ~ ~ c d d f d d s f s f s d d d d s f d f d s h Z Z B Z Z Z Z Z Z Z h d d s d : o o o o o ",
"          8 0 0 0 0 n Q ~ ~ ^ U j g g g g c b b b b N b b b b b b b b b b b b b b b z s s d s g Z Z Z Z Z 2 # $ $ $ #           ",
"          X X X X . 1 ~ ~ ! ^ H 2 1 2 2 2 z Z Z Z Z B Z Z D Z Z Z Z Z Z Z D Z Z Z D z 2 2 2 2 y B Z Z Z Z > X o o o             ",
"          o o o o X 4 ~ ~ ~ ^ H t 2 2 2 2 z Z Z Z Z Z Z Z Z Z Z Z Z Z Z Z Z Z Z Z D x 2 2 2 2 u B Z Z Z Z > o o o o             ",
"          o o o o X 4 ~ ~ ~ ^ K 2 2 2 2 2 x Z Z Z Z Z Z Z Z Z Z Z Z Z Z Z Z Z Z Z Z x 2 2 2 2 y B Z Z Z Z > X o o o             ",
"          o o o o X 3 ~ ~ ~ ~ K r 2 2 2 2 k D Z Z Z Z Z Z Z Z Z Z Z B D Z Z Z Z B Z z 2 2 2 2 u B Z Z Z Z , X o o o             ",
"          o o o X X 1 U Y Y Y Z r 2 2 2 2 x Z Z Z Z Z Z Z Z Z Z Z Z Z B Z Z Z Z D D z 2 2 2 2 y h k k k k * X o o o             ",
"          o o o o X < J G J G B r 2 2 2 2 k D Z Z Z Z Z Z Z Z Z Z Z Z Z Z Z Z Z B D z 2 2 2 2 t p d d d d & X o o o             ",
"          o o o o X < J J G G N r 2 2 2 2 x Z Z Z Z Z Z Z Z Z B Z Z Z Z Z Z Z Z B D k 2 2 2 2 r p d d d d & o o o o             ",
"          o o o X X 1 J J J I B r 2 2 2 2 z Z D Z Z Z Z Z Z Z Z Z Z Z Z Z Z Z Z Z B x 2 2 2 2 r d d d d d & o o o o             ",
"          o o o o X > A D D D b r 2 2 2 2 z D B Z Z Z Z Z Z Z Z Z Z Z Z Z Z Z Z Z D x r r 2 2 r u u u u u & X o o o             ",
"                      & & & & : i i i i i v D Z Z Z B Z Z Z Z Z Z Z Z Z Z Z B D B D v i i i i r # # # # #                       ",
"                      o X X . # i d d s i v B D Z Z Z Z Z Z Z Z Z Z Z Z Z B D B Z D v i d d s r o o X X X                       ",
"                      o o o X # p p p d d v D B B D B Z Z Z B D Z Z Z Z Z Z Z Z Z Z v d p d d r o o o o o                       ",
"                      o o o o # p p p p d b D B D B D B Z B D B Z Z Z B Z Z Z Z Z Z b d d d d 2 O o o o o                       ",
"                      o o o o # p p p p p v B B B B B B B B B B B B B B B B B B B B c p p p p r O o o o o                       ",
"                                $ $ $ $ $ & ; ; ; ; ; ; ; ; ; ; ; ; ; * ; ; ; ; ; : & # $ $ $ $                                 ",
"                                o X o X o X X X X X X X X X X X X X o X . X X X X X o o o o o o                                 ",
"                                o o o o o o o o X o o o o o o o o o o o o o o o o o o o o o o o                                 ",
"                                o o o o o o o o o o o o o o o o o o o o o o o o o o o o o o o o                                 ",
"                                o o o o o o o o o o o o o o o o o o o o o o o o o o o o o o o o                                 "
};
