/* XPM */
static char *bacfdcef091c4bc2f61e7d9573bad369xHQNGDoEQQyInfwh[] = {
/* columns rows colors chars-per-pixel */
"64 64 146 2 ",
"   c None",
".  c #322617",
"X  c #342817",
"o  c #362918",
"O  c #3C2E1B",
"+  c #3F311B",
"@  c #42331E",
"#  c #463622",
"$  c #483721",
"%  c #4C3B22",
"&  c #463828",
"*  c #4D3E28",
"=  c #513E24",
"-  c #554125",
";  c #594526",
":  c #554328",
">  c #5B4628",
",  c #5E4929",
"<  c #4F473B",
"1  c #5B4B33",
"2  c #524739",
"3  c #51493E",
"4  c #5C4E39",
"5  c #634D2C",
"6  c #67502D",
"7  c #6A522E",
"8  c #634E30",
"9  c #675132",
"0  c #6C5432",
"q  c #64533B",
"w  c #6C5639",
"e  c #6E5839",
"r  c #705732",
"t  c #755A34",
"y  c #7A5E36",
"u  c #735D3C",
"i  c #7A5F38",
"p  c #7C6037",
"a  c #7E6239",
"s  c #444344",
"d  c #494642",
"f  c #4E4B46",
"g  c #46484C",
"h  c #4F4C4A",
"j  c #575247",
"k  c #56514A",
"l  c #5B564D",
"z  c #4A4D52",
"x  c #4E5153",
"c  c #5D5D5F",
"v  c #6D5B42",
"b  c #735E41",
"n  c #625D5B",
"m  c #766040",
"M  c #786343",
"N  c #72634D",
"B  c #7A6649",
"V  c #5B5E66",
"C  c #5F6163",
"Z  c #5D646F",
"A  c #636564",
"S  c #61676E",
"D  c #63686C",
"F  c #696B6A",
"G  c #706F6A",
"H  c #7C7669",
"J  c #656E77",
"K  c #686F75",
"L  c #6B7175",
"P  c #82653B",
"I  c #86683E",
"U  c #8B6C3E",
"Y  c #866A41",
"T  c #8B6C41",
"R  c #846B49",
"E  c #906F40",
"W  c #8D7046",
"Q  c #8E7147",
"!  c #8F7247",
"~  c #8E7145",
"^  c #8E7146",
"/  c #8F7248",
"(  c #917040",
")  c #927141",
"_  c #937141",
"`  c #917142",
"'  c #907043",
"]  c #927142",
"[  c #947241",
"{  c #957341",
"}  c #947342",
"|  c #957442",
" . c #957443",
".. c #967442",
"X. c #967443",
"o. c #977543",
"O. c #937346",
"+. c #957444",
"@. c #957547",
"#. c #927141",
"$. c #9A7745",
"%. c #9B7844",
"&. c #9C7946",
"*. c #9F7B46",
"=. c #9F7B47",
"-. c #917349",
";. c #917449",
":. c #91754A",
">. c #92754A",
",. c #93764B",
"<. c #93764B",
"1. c #95784C",
"2. c #95784D",
"3. c #96794E",
"4. c #97794E",
"5. c #96794E",
"6. c #9B7A49",
"7. c #9D7B49",
"8. c #9D7C4B",
"9. c #997A4E",
"0. c #9A7B4E",
"q. c #9A7C4E",
"w. c #9F7E4D",
"e. c #9C7C4E",
"r. c #9D7E4F",
"t. c #87755A",
"y. c #84755E",
"u. c #A07D49",
"i. c #A17E4B",
"p. c #A37F4B",
"a. c #A47F48",
"s. c #A17F4D",
"d. c #A07F4E",
"f. c #807665",
"g. c #A48049",
"h. c #A6814A",
"j. c #A1804F",
"k. c #A7834C",
"l. c #A4824E",
"z. c #A9844C",
"x. c #A9854D",
"c. c #AB854C",
"v. c #A8844F",
"b. c #AC864C",
"n. c #AC864D",
"m. c #AF894F",
/* pixels */
"                                                                                                                                ",
"                                                                                                                                ",
"                                                                                                                                ",
"                                                                                                                                ",
"                                                                                                                                ",
"                                                                                                                                ",
"                                                                                                                                ",
"                                                                                                                                ",
"              I a t                                                                                                             ",
"        m.c.u.[ U P r 7 5                                                                                                       ",
"      0.e.7.7.7.o.{ [ U y 6 5 0                                                                                                 ",
"      T / I U U #.7.i.i.u.o.U I p 7 7                                                                                           ",
"      W T a a P Y 2.0.0.i.z.z.a.%.U P 7 ; ; 5                                                                                   ",
"      3.>.a i r i P T O.1.8.j.z.l.i.#.p t t p i 0 6                                                                             ",
"      3.1.P t % - 5 r i P T / >.T O.W I T +.{ #.P y 7 , =                                                                       ",
"      f.t.P i = $ ; ; , 5 r i a P T >.2.8.e.i.a.a.u.[ P r t p r                                                                 ",
"      K L M t > -     ; = ; ; 7 i y P I T 2.4.e.l.z.n.h.$.U p r 0 6 5                                                           ",
"      V A u y ; -           - ; y 7 > 7 i a I W W U @.j.8.U p u 9 ; = = >                                                       ",
"      B N i t ; -               P 0 @ % ; 5 0 t p P I O.4./ p , > , 5 8 8                                                       ",
"      T T P t 5 5               #.i ; =   - - ; 5 0 t p P W p t e w 5 5 >                                                       ",
"      4.-.a i 5 0 Y ~           } p ;           - - 5 i p p 6 , 6 8 > = +                                                       ",
"      4.2.P t % - r P U { {     U i -               0 P p p , - 9 9 > = X                                                       ",
"      W O.P t - @ ; ; 5 t I I T T i ;                 U p t , - w w > = +                                                       ",
"      T I P t ; ;     - - ; 5 0 P p 5 t               O.P p : $ w w > = @                                                       ",
"      4.>.a t ; ;           - ; t 0 ; 0 I U o.        #.P y 6 > j j > = O                                                       ",
"      4.4.a t ; -               Y 0 @ = , 0 P U [ T I T P i 6 5 x f > = @                                                       ",
"      4.2.P t 5 >               T i ; = - = ; , 9 i P T a i , - d 2 > ; %                                                       ",
"      4.>.P y 0 r I             { p -           = ; 5 a p p 5 - 1 5 > = O                                                       ",
"      4.4.a p P P T T [ [ {     T a ;               0 a p i ; = 9 9 5 @ X                                                       ",
"      -.>.P t 5 e P U T U ~ U I T i :                 T P i , @ w 0 , = O                                                       ",
"      R Y P t % @ > 5 t i y r y P p 5 r               #.P y 7 5 e 0 , = @                                                       ",
"      L F u t ; > 7 5 - ; 5 5 5 7 r i a T T {         E P y 5 5 9 5 > = +                                                       ",
"      Z S w 6 ; ; t P t 7 ; ; ; r r i I T T #.[ T T I U P y 5 = 9 8 , = @                                                       ",
"      n n i r - ; 6 6 7 t P t r y 0 # ; 0 i I P I a I U P y > ; w w ; ; @                                                       ",
"      Y R i t > , P 7 7 6 7 r t T t = ; > ; > 6 7 5 7 t i i ; $ w 0 > > ,                                                       ",
"      T I a y 5 6 P P P 7 6 6 7 I i = 7 t r 5 1 : ; 5 7 t y 5 = w 9 > , >                                                       ",
"      O.U P y i P P U U P t 7 7 T y ; 5 7 t i F A l q i i i 7 5 e 0 , % X                                                       ",
"      4.@.P y y P P U U U U U P E y = 5 r 7 9 C S D D n u y 5 ; e w , % +                                                       ",
"      4.u.I t = = 7 t t P P U U T a > r y y e k h & 2 l v i , ; 9 6 > % +                                                       ",
"      4.U P t = = ; ; ; , 7 6 7 r t 0 y I I y = # @ = 7 7 7 ; * 4 4 - $ +                                                       ",
"      4.2.a t > 5 r r 5 ; ; - ; 0 7 y y I U E I t > 6 T y r ; # x h - % +                                                       ",
"      4.2.a t ; 5 y y P y t 6 , y 7 = 6 t y P P U U U E P y 9 > g d > - $                                                       ",
"      4.1.P i ; 5 t y y y P t P I t # = = 5 6 6 7 r p P P y 6 , 3 1 > : -                                                       ",
"      -.O.P t 5 5 P y P t t 7 r T y = 6 7 5 > = ; , 7 i y y 5 - 6 5 , , 5                                                       ",
"      T Y a i r t P I I t 7 6 r U P - 7 P y t 7 5 ; 6 I P y 5 ; 1 5 , - O                                                       ",
"      2.>.p p P I I U U U P t t U P - 7 y y y P p t i U P y - @ w 9 , % o                                                       ",
"      H f.P t , r P I U U U U U U P = 7 y t y y y r p U P y 5 % w 9 > % +                                                       ",
"      J K M t % @ - 5 r t y r t P P 6 t P P P 7 7 5 y U P y 7 6 e 0 , - +                                                       ",
"      V V m i ; > r 6 > ; > 5 5 7 r t P I U U P r 7 t U P y 5 > e 9 , = +                                                       ",
"      B N i t ; 5 y y y r 6 > - r r t P U U U U U U U o.P i 5 - w w , % @                                                       ",
"      U I a y ; > y y y P y t t P t 6 5 6 y P P P P I U i r ; ; w w , ; %                                                       ",
"      T U y y > 5 t y y y y r t U y - 5 5 - ; 5 6 5 7 r 0 5 % $ e 9 > > 5                                                       ",
"      4.-.i t 7 r P P P r 7 7 7 U P - 7 y t 6 5 - - 5 t 7 7 5 ; 9 8 , > =                                                       ",
"      u a 7 5 6 r I U U P r 7 r U P - 7 P y y y t 7 r U a r 5 5 9 5 , % o                                                       ",
"        - $ * ; 6 y I U U U U P U P = 7 y y y y y t P U P y 5 - e 9 , = O                                                       ",
"            @ @ @ = 7 P U U U U I P 5 7 P y i r t 6 t U P i 5 ; l j > = +                                                       ",
"                  @ @ % ; 6 r t 0 r 7 i I U I r 6 6 t { P i > * z f > = +                                                       ",
"                        @ @ # = ; > 5 t P U E E I p p { I t > # s < > = +                                                       ",
"                              @ @ # $ > 7 P T E U U U ~ p i 7 5 4 8 > = $                                                       ",
"                                    @ @ @ = 5 e P P a p r 6 , , 5 5 > ; %                                                       ",
"                                            @ @ = ; 5 5 5 7 ; - 9 9 - % %                                                       ",
"                                                  @ @ $ % > ; ; 9 5 @ O X                                                       ",
"                                                        # @ $ # - + . .                                                         ",
"                                                              @ +                                                               "
};
