/* XPM */
static char *_f58dbec400f4eaddfa0b45215475844IuofwqCoeKMe1QdM[] = {
/* columns rows colors chars-per-pixel */
"64 70 207 2 ",
"   c None",
".  c #030609",
"X  c #04120F",
"o  c #1C1406",
"O  c #050412",
"+  c #07051D",
"@  c #051A16",
"#  c #061D19",
"$  c #071916",
"%  c #15151B",
"&  c #07221D",
"*  c #08201D",
"=  c #15281C",
"-  c #37270D",
";  c #362A1A",
":  c #3B2E1D",
">  c #342716",
",  c #3E301E",
"<  c #3D3416",
"1  c #0B0A24",
"2  c #0E0A2C",
"3  c #060526",
"4  c #151425",
"5  c #000231",
"6  c #120E34",
"7  c #140F38",
"8  c #13102B",
"9  c #062A24",
"0  c #092C26",
"q  c #0B2924",
"w  c #09332B",
"e  c #0A352E",
"r  c #0B3B31",
"t  c #0F3730",
"y  c #103931",
"u  c #33372D",
"i  c #201706",
"p  c #44331B",
"a  c #4D3712",
"s  c #443422",
"d  c #4B3927",
"f  c #533C26",
"g  c #523F2D",
"h  c #0D443A",
"j  c #0C463D",
"k  c #634919",
"l  c #504839",
"z  c #65442E",
"x  c #654534",
"c  c #694735",
"v  c #694936",
"b  c #664D38",
"n  c #7D543A",
"m  c #714C37",
"M  c #1A1446",
"N  c #231C59",
"B  c #292267",
"V  c #433E6F",
"C  c #0D4D43",
"Z  c #13574A",
"A  c #075C5C",
"S  c #125D58",
"D  c #0F5145",
"F  c #24544E",
"G  c #136356",
"H  c #16715F",
"J  c #046969",
"K  c #187766",
"L  c #027B7B",
"P  c #007677",
"I  c #126B69",
"U  c #2F726B",
"Y  c #494949",
"T  c #5F5F5F",
"R  c #584F41",
"E  c #7E5544",
"W  c #745C47",
"Q  c #6C5D4A",
"!  c #426256",
"~  c #586251",
"^  c #615E79",
"/  c #487265",
"(  c #666666",
")  c #6A6A6A",
"_  c #7A6350",
"`  c #82583F",
"'  c #8B574A",
"]  c #8D5A4B",
"[  c #885A44",
"{  c #915F4C",
"}  c #8E6148",
"|  c #906449",
" . c #96694C",
".. c #8D6C52",
"X. c #996B51",
"o. c #9C6E5F",
"O. c #8C715C",
"+. c #A47456",
"@. c #A57358",
"#. c #AA765A",
"$. c #AC7758",
"%. c #B27A5D",
"&. c #B47E61",
"*. c #AE7C60",
"=. c #1C8B76",
"-. c #BA825F",
";. c #B48164",
":. c #BB8366",
">. c #B68B75",
",. c #B9937A",
"<. c #99937C",
"1. c #C48A6B",
"2. c #CA8D6E",
"3. c #C18668",
"4. c #C58F75",
"5. c #CD9170",
"6. c #C3967F",
"7. c #CD987D",
"8. c #CC957C",
"9. c #D29373",
"0. c #DC9B79",
"q. c #D99777",
"w. c #E19E7B",
"e. c #E4A17D",
"r. c #372D85",
"t. c #3E3494",
"y. c #41369B",
"u. c #43399D",
"i. c #493F9D",
"p. c #463AA5",
"a. c #473BA8",
"s. c #493DAC",
"d. c #4A3FA0",
"f. c #4C3FB2",
"g. c #137592",
"h. c #544D8D",
"j. c #6B559A",
"k. c #7B6298",
"l. c #4E41B5",
"z. c #4F42B9",
"x. c #4743B0",
"c. c #5144BD",
"v. c #4940AF",
"b. c #5446C4",
"n. c #5648C7",
"m. c #5648C8",
"M. c #A57987",
"N. c #018484",
"B. c #008B8C",
"V. c #0A8484",
"C. c #008F90",
"Z. c #009394",
"A. c #009798",
"S. c #009B9C",
"D. c #1F9882",
"F. c #2F928B",
"G. c #22A58D",
"H. c #23A98F",
"J. c #23AC93",
"K. c #25B59B",
"L. c #26B99E",
"P. c #24B197",
"I. c #009FA0",
"U. c #00A4A5",
"Y. c #00A7A8",
"T. c #00ABAC",
"R. c #09A9A9",
"E. c #00AFB0",
"W. c #00B2B3",
"Q. c #00B7B8",
"!. c #00BBBC",
"~. c #27BCA1",
"^. c #28BFA3",
"/. c #40A49C",
"(. c #789887",
"). c #28C2A6",
"_. c #29C5A8",
"`. c #27C1A4",
"'. c #00C3C4",
"]. c #00CACB",
"[. c #01D5D6",
"{. c #01CFD1",
"}. c #9788B9",
"|. c #A18FB5",
" X c #C69984",
".X c #CD9D85",
"XX c #CC9580",
"oX c #D19C8C",
"OX c #D0A186",
"+X c #D4A48B",
"@X c #D8A78C",
"#X c #DCAC95",
"$X c #DDAE98",
"%X c #D5B19F",
"&X c #ECA681",
"*X c #EFA884",
"=X c #F8AF89",
"-X c #F4AC87",
";X c #FDB48C",
":X c #F6B28B",
">X c #FFB790",
",X c #FFB890",
"<X c #E1B19B",
"1X c #D6B3A2",
"2X c #FEFDFC",
"3X c #FAF6F4",
"4X c #F7F0EA",
/* pixels */
"                                                            p s p : : s s : : ; ; ; ; : , , , , : ;                             ",
"                                                            : p , : : s : : ; : ; ; ; ; ; , : : : ;                             ",
"                                                            : : , , : , : s , : : : , , , , , , : >                             ",
"                                                            : : : : : : : s s s f f f f s , , ; :                               ",
"                                                            : : : < , , : s s s f f f f d , , : ;                               ",
"                                                            : : b .X.X+X+X#X$X$X+X@X@X+X.X4.1.s s                               ",
"                                                            : : b OXOX@X@X#X<X<X@X@X#X@XOX4.4.s d                               ",
"                                                            g g Q OXOX+X+X#X#X#XOXOX@X@XOX:.>.b b                               ",
"            9 w                                             6.6. XOX.X6. X X X X>.&.oX%X7.;.;.;.;.                              ",
"            9 w w w e                                       ,.6. XOX.X6.XX X X X>.>.oXoX7.;.;.;.;.                              ",
"            9 w w w w w w                                    X.X1X3X3Xj.j.M.XXXXOXOXj.j.}.2X3X6.6.                              ",
"          w 9 w w S e w w                                    X.X1X2X2Xj.j.M.XXXX+XoXj.j.}.2X2X6. X                              ",
"          0 0 w j G.J.^.K                                    X.X%X2X2Xj.j.M.4.XX.X.Xk.k.|.4X4X>.>.                              ",
"          9 w w =.G.K._.K e                                 $.%.;.8.8.oXoXo.E E E ' 7.oX7.-.-. . .                              ",
"          9 w w L._.J.L.j w                                 %.*.&.8.8.oXoXo.[ E E E XX.X7.-.-. . .                              ",
"            w w _._.G.H._.L.r                               @.#.#.%.%.' ] ' ' E ' [ ' ' { $.$. .X.}                             ",
"            # & r =.G.J._.=.w                               @.@.$.$.$.' ' ' ' ] ' ' ' ' ' $.$.X.X.}         Y.                  ",
"            & w w D._.J.J.=.h                   [.Q.Y.T.    +.@.+.$.$.] ] ' ] ] { ' ' { } +.+. . .}     W.W.{.                  ",
"                * K._.G.J._.).w t             '.[.[.'.W.I.B.W n ` ` `  .X.X.X.X.| | X.X.X.X.X.| | / A.T.!.].[.[.                ",
"              q # w h `.K.).=.e               T.Q.'.].Q.Y.B.Q [ ` ` E X. .X. . .| | X.X.X.X.X.} | / S.W.'.[.W.Y.S.              ",
"                0 w K _.P.G.).J.r             U.U.Y.!.'.E.Z.I S S S S R m m n n z z z z F J S J J V.Y.!.'.E.U.U.U.              ",
"                  @ j =.J.G._.^.w y         T.Y.Y.T.Y.W.E.U.P J P P P U ! ~ } } n n ! ! I L L P J B.E.E.T.Y.Y.Y.T.              ",
"                  * w w _.^.J.D.C           W.W.T.Y.Y.E.E.Y.Y.N.N.B.N.N.V.U } } [ [ g.=.B.Z.B.J U.U.T.W.E.Y.T.W.W.              ",
"                    9 G _.P.G.)._.w e       T.E.T.Y.E.W.E.Y.Y.P C.S.S.A.A.=..... ...C.C.S.I.A.N.U.Y.Y.W.W.Y.Y.W.T.Y.            ",
"                    # w w ^.L.L.G.w       Y.Y.T.W.Y.W.W.Y.S.I.Z.Y.T.E.T.I.I.S.S.A.A.S.U.Y.Y.Y.U.B.I.I.E.E.T.E.E.T.Y.            ",
"                    q w r _.^.G.L._.e y   U.Y.Y.T.W.W.T.U.U.J T.E.E.E.E.T.Y.I.I.S.A.Y.Y.T.T.E.T.A.I.I.E.E.E.E.E.Y.Y.            ",
"                      # & D J.J._.K.w     S.C.X 9 C U.W.W.T.  Q.W.W.W.W.E.E.I.I.S.S.W.W.W.T.W.T.T.A.E.E.E.E.E.E.U.S.S.          ",
"                      * w w ).).G.K.J.r O.F j X # $ w Y.T.U.  Q.Q.Q.Q.Q.Q.E.U.Y.U.S.W.W.W.W.E.W.Y.A T.Y.E.E.T.T.R.(.9.          ",
"                        & q =.K.G.).L.w l X # t e # L S.S.A   Y.Y.U.Y.E.Q.Q.Q.W.U.S.W.Q.U.I.S.S.Z.  S.S.Y.Y./.,.9.9.9.          ",
"                        # 0 w ~.).G.H.=.# X * j h # ,.F.S.    Y.U.Y.Y.E.Q.Q.Q.Q.U.S.W.W.U.I.A.A.Z.  L G.<.5.9.9.2.9.w.*X        ",
"                          0 0 L.K.G.).P.# h D # ..Q 2.2.&.    Y.Y.I.Y.E.!.Q.W.W.U.U.Q.Q.Y.Y.I.A.C.    2.2.2.2.1.1.w.*X&X        ",
"                          * 9 w K.).H.Z # D r # :.1.1.3.m     Y.Y.Y.Y.W.!.Q.W.W.U.U.Q.W.T.Y.S.Z.B.    3.3.1.3.%.%.2.e.:X:X      ",
"                            0 0 ).P.G.& 0 K & u &.X.*.:.      Y.Y.E.E.Q.!.Q.E.T.T.Y.Q.Q.T.Y.S.Z.N.     .&.X.#.2.0.&X=X;X>X      ",
"                            X @ # # 9 G j Z u 2.w.1.*.[       Y.Y.Q.!.!.!.Q.Y.Y.W.E.Q.W.T.Y.A.C.V.      #.3.0.&X-X=X;X>X>X      ",
"                        $ $ @ & & # j K # _ =X-X-Xw.9.        Y.Y.!.!.!.!.Q.U.Y.W.W.Q.Q.T.Y.A.B.V.      2.0.e.-X=X=X;X;X>X>X    ",
"                    q = X $ & H H H & = a o +.=X&Xw.q.        T.Y.Q.!.!.!.Q.Y.I.W.W.Q.W.T.Y.A.B.V.      ] w.w.=X=X;X;X;X;X,X    ",
"                    @ @ * h r D G G @ < a i 1.;X=X-X@.        T.T.Q.!.!.!.Q.Y.Y.W.E.Q.Q.T.Y.Z.B.g.        &X=X=X;X;X;X,X,X>X:X  ",
"                    @ # & D 9 @ # l o - a k - ;X=X=X          !.!.'.!.!.!.Q.Y.U.W.W.Q.W.E.T.A.B.=.        5.=X;X;X;X,X;X,X,X,X  ",
"                  # @ @ # &     W :.v - k a 3.;X;Xw.          !.!.!.!.!.!.Q.Y.I.W.E.Q.W.W.E.S.C.N.          ;X:X;X;X,X>X,X,X,X  ",
"                    # # * &     e.0.+.o - p ;X;X;X            Y.T.T.Y.Y.Y.T.W.W.!.!.E.E.E.E.S.Z.B.          -X;X;X;X,X,X,X,X,X:X",
"                                m ;.:XX.z +.,X;X;X            Y.Y.Y.Y.Y.T.Y.W.Q.!.Q.E.E.W.E.I.Z.B.          ;.;X;X;X,X,X,X5.E x ",
"                                x x x E 5.,X,X;X9.            c.b.z.b.c.f.b.b.f.c.c.y.y.E.W.I.A.C.            ;X,X,Xe.] b x x x ",
"                                    x x x x } w.              c.c.c.c.c.c.c.c.c.c.c.y.y.W.W.Y.A.Z.            q.X.v v x x       ",
"                                          x z b               c.c.c.c.c.b.f.f.f.f.f.f.l.u.u.g.S.g.              v x             ",
"                                                            f.c.b.c.b.b.b.s.t.a.p.t.p.l.c.s.g.U.g.                              ",
"                                                            b.c.b.b.m.b.b.b.b.O 3 b.b.c.c.c.c.x.s.                              ",
"                                                            b.n.b.b.b.m.m.m.f.. O b.c.b.c.c.c.f.c.f.                            ",
"                                                            n.b.m.m.m.m.m.b.t.. O c.b.c.b.c.c.c.z.f.                            ",
"                                                            b.m.n.n.n.n.n.m.N . O p.b.c.c.c.c.c.c.f.                            ",
"                                                            m.m.n.n.m.m.m.m.7   O r.b.b.b.b.c.c.c.l.                            ",
"                                                          b.n.n.n.m.m.m.m.m.3   O N b.b.b.c.c.c.c.c.                            ",
"                                                          b.n.m.m.m.m.m.n.n.+   + 6 b.b.c.b.b.c.c.c.                            ",
"                                                          m.m.m.m.m.m.m.m.f.+   + 1 b.b.b.c.c.c.c.c.l.                          ",
"                                                          m.n.b.m.m.m.m.m.r.+     1 b.b.b.c.b.c.c.c.c.                          ",
"                                                          b.b.l.c.n.m.m.m.N 3     1 f.b.b.b.b.l.s.b.f.                          ",
"                                                        b.b.b.p.a.p.p.n.b.6       3 t.b.l.p.u.u.i.f.b.                          ",
"                                                        b.b.f.p.d.p.p.b.n.1       1 B b.c.p.u.u.u.c.c.                          ",
"                                                        f.f.b.b.c.l.l.b.c.1       2 M b.c.s.l.c.c.l.c.                          ",
"                                                        c.f.f.c.c.c.c.c.p.2       2 6 c.c.c.z.l.f.f.f.                          ",
"                                                        f.f.f.f.l.l.c.l.r.2       2 2 c.l.f.l.f.f.f.f.                          ",
"                                                        a.s.f.f.s.f.f.f.B 2       8 2 f.f.f.s.f.s.s.s.                          ",
"                                                        a.p.a.a.s.s.f.f.M % 5 5 5 % 2 s.s.s.s.a.a.p.a.                          ",
"                                                        p.p.p.p.a.a.a.a.M % 5 5 5 % 8 p.s.a.a.a.a.a.p.                          ",
"                                                        p.p.p.p.p.p.p.p.6 % 5 5 5 4 8 p.a.a.a.p.p.p.p.                          ",
"                                                        p.p.p.p.p.p.p.p.8 1 5 5 5 4 4 y.u.i.p.u.p.p.a.                          ",
"                                                        ) ^ h.i.p.p.p.p.% 5 5 5 5 5 o y.v.v.p.v.h.^ )                           ",
"                                                        ) ) ( ( ( ) ^ h.%           % V k.) ) ) ) ) ) (                         ",
"                                                        ( ) ( ) ) ) ) ( %             Y ) ) ) ) ) ) ) )                         ",
"                                                          ( ( ( ) ) ( T               Y ) ) ) ) ) )                             ",
"                                                                    ( T               Y )                                       "
};
